<?xml version="1.0" encoding="UTF-8" standalone="no"?>
<!-- Created with Inkscape (http://www.inkscape.org/) -->

<svg
   xmlns:dc="http://purl.org/dc/elements/1.1/"
   xmlns:cc="http://creativecommons.org/ns#"
   xmlns:rdf="http://www.w3.org/1999/02/22-rdf-syntax-ns#"
   xmlns:svg="http://www.w3.org/2000/svg"
   xmlns="http://www.w3.org/2000/svg"
   xmlns:sodipodi="http://sodipodi.sourceforge.net/DTD/sodipodi-0.dtd"
   xmlns:inkscape="http://www.inkscape.org/namespaces/inkscape"
   version="1.1"
   id="svg3778"
   xml:space="preserve"
   width="1318.2992"
   height="1269.9211"
   viewBox="0 0 1318.2992 1269.9211"
   sodipodi:docname="ElíasTabbedBox.pdf"
   inkscape:version="0.92.4 (5da689c313, 2019-01-14)"><metadata
     id="metadata3784"><rdf:RDF><cc:Work
         rdf:about=""><dc:format>image/svg+xml</dc:format><dc:type
           rdf:resource="http://purl.org/dc/dcmitype/StillImage" /><dc:title></dc:title></cc:Work></rdf:RDF></metadata><defs
     id="defs3782" /><sodipodi:namedview
     pagecolor="#ffffff"
     bordercolor="#666666"
     borderopacity="1"
     objecttolerance="10"
     gridtolerance="10"
     guidetolerance="10"
     inkscape:pageopacity="0"
     inkscape:pageshadow="2"
     inkscape:window-width="1920"
     inkscape:window-height="1001"
     id="namedview3780"
     showgrid="false"
     inkscape:zoom="0.52563012"
     inkscape:cx="1508.8445"
     inkscape:cy="533.96481"
     inkscape:window-x="-9"
     inkscape:window-y="-9"
     inkscape:window-maximized="1"
     inkscape:current-layer="g3788" /><g
     id="g3786"
     inkscape:groupmode="layer"
     inkscape:label="ElíasTabbedBox"
     transform="matrix(1.3333333,0,0,1.3333333,0,7.7480306e-6)"><g
       id="g3788"><g
         id="g3790"><path
           d="m 135.211,419.527 h 32.394 v -8.789 h 32.778 v 8.789 h 32.265 v -8.789 h 32.778 v 8.789 h 32.265 v -8.789 h 32.778 v 8.789 h 32.265 v -8.789 h 32.774 v 8.789 h 32.265 v -8.789 h 32.778 v 8.789 h 32.394"
           style="fill:none;stroke:#000000;stroke-width:2.83464599;stroke-linecap:butt;stroke-linejoin:miter;stroke-miterlimit:4;stroke-dasharray:none;stroke-opacity:1"
           id="path3792"
           inkscape:connector-curvature="0" /></g><g
         id="g3794"><path
           d="m 309.684,454.52 h 8.789 v 43.398 h -8.789 z"
           style="fill:none;stroke:#000000;stroke-width:2.83464599;stroke-linecap:butt;stroke-linejoin:miter;stroke-miterlimit:4;stroke-dasharray:none;stroke-opacity:1"
           id="path3796"
           inkscape:connector-curvature="0" /></g><g
         id="g3798"><path
           d="m 492.945,419.527 v 34.993 h -8.789 v 43.398 h 8.789 v 34.996"
           style="fill:none;stroke:#000000;stroke-width:2.83464599;stroke-linecap:butt;stroke-linejoin:miter;stroke-miterlimit:4;stroke-dasharray:none;stroke-opacity:1"
           id="path3800"
           inkscape:connector-curvature="0" /></g><g
         id="g3802"><path
           d="m 492.945,532.914 h -32.394 v 8.785 h -32.778 v -8.785 h -32.265 v 8.785 h -32.774 v -8.785 h -32.265 v 8.785 h -32.778 v -8.785 h -32.265 v 8.785 h -32.778 v -8.785 h -32.265 v 8.785 h -32.778 v -8.785 h -32.394"
           style="fill:none;stroke:#000000;stroke-width:2.83464599;stroke-linecap:butt;stroke-linejoin:miter;stroke-miterlimit:4;stroke-dasharray:none;stroke-opacity:1"
           id="path3804"
           inkscape:connector-curvature="0" /></g><g
         id="g3806"><path
           d="M 135.211,532.914 V 497.918 H 144 V 454.52 h -8.789 v -34.993"
           style="fill:none;stroke:#000000;stroke-width:2.83464599;stroke-linecap:butt;stroke-linejoin:miter;stroke-miterlimit:4;stroke-dasharray:none;stroke-opacity:1"
           id="path3808"
           inkscape:connector-curvature="0" /></g><g
         id="g3810"><path
           d="m 10.203,144 h 34.738 v -8.789 H 88.852 V 144 h 34.738"
           style="fill:none;stroke:#000000;stroke-width:2.83464599;stroke-linecap:butt;stroke-linejoin:miter;stroke-miterlimit:4;stroke-dasharray:none;stroke-opacity:1"
           id="path3812"
           inkscape:connector-curvature="0" /></g><g
         id="g3814"><path
           d="m 123.59,144 v 21.383 h 8.789 v 30.555 h -8.789 v 30.046 h 8.789 v 30.551 h -8.789 v 30.047 h 8.789 v 30.555 h -8.789 v 30.043 h 8.789 v 30.554 h -8.789 v 21.383"
           style="fill:none;stroke:#000000;stroke-width:2.83464599;stroke-linecap:butt;stroke-linejoin:miter;stroke-miterlimit:4;stroke-dasharray:none;stroke-opacity:1"
           id="path3816"
           inkscape:connector-curvature="0" /></g><g
         id="g3818"><path
           d="M 123.59,399.117 H 88.852 v 8.789 H 44.941 v -8.789 H 10.203"
           style="fill:none;stroke:#000000;stroke-width:2.83464599;stroke-linecap:butt;stroke-linejoin:miter;stroke-miterlimit:4;stroke-dasharray:none;stroke-opacity:1"
           id="path3820"
           inkscape:connector-curvature="0" /></g><g
         id="g3822"><path
           d="M 10.203,399.117 V 377.734 H 1.418 V 347.18 h 8.785 V 317.137 H 1.418 v -30.555 h 8.785 V 256.535 H 1.418 v -30.551 h 8.785 V 195.938 H 1.418 v -30.555 h 8.785 V 144"
           style="fill:none;stroke:#000000;stroke-width:2.83464599;stroke-linecap:butt;stroke-linejoin:miter;stroke-miterlimit:4;stroke-dasharray:none;stroke-opacity:1"
           id="path3824"
           inkscape:connector-curvature="0" /></g><g
         id="g3826"><path
           d="m 7.371,687.117 h 34.738 v -8.785 h 43.907 v 8.785 h 34.742"
           style="fill:none;stroke:#000000;stroke-width:2.83464599;stroke-linecap:butt;stroke-linejoin:miter;stroke-miterlimit:4;stroke-dasharray:none;stroke-opacity:1"
           id="path3828"
           inkscape:connector-curvature="0" /></g><g
         id="g3830"><path
           d="m 120.758,687.117 v 21.387 l -25.5,30.555 v 151.238 l 25.5,30.555 v 21.382"
           style="fill:none;stroke:#000000;stroke-width:2.83464599;stroke-linecap:butt;stroke-linejoin:miter;stroke-miterlimit:4;stroke-dasharray:none;stroke-opacity:1"
           id="path3832"
           inkscape:connector-curvature="0" /></g><g
         id="g3834"><path
           d="M 120.758,942.234 H 86.016 v 8.789 H 42.109 v -8.789 H 7.371"
           style="fill:none;stroke:#000000;stroke-width:2.83464599;stroke-linecap:butt;stroke-linejoin:miter;stroke-miterlimit:4;stroke-dasharray:none;stroke-opacity:1"
           id="path3836"
           inkscape:connector-curvature="0" /></g><g
         id="g3838"><path
           d="M 7.371,942.234 V 687.117"
           style="fill:none;stroke:#000000;stroke-width:2.83464599;stroke-linecap:butt;stroke-linejoin:miter;stroke-miterlimit:4;stroke-dasharray:none;stroke-opacity:1"
           id="path3840"
           inkscape:connector-curvature="0" /></g><g
         id="g3842"><path
           d="m 135.211,135.211 h 32.648 V 144 h 32.27 v -8.789 h 32.773 V 144 h 32.266 v -8.789 h 32.777 V 144 h 32.266 v -8.789 h 32.777 V 144 h 32.266 v -8.789 h 32.777 V 144 h 32.266 v -8.789 h 32.648"
           style="fill:none;stroke:#000000;stroke-width:2.83464599;stroke-linecap:butt;stroke-linejoin:miter;stroke-miterlimit:4;stroke-dasharray:none;stroke-opacity:1"
           id="path3844"
           inkscape:connector-curvature="0" /></g><g
         id="g3846"><path
           d="m 492.945,135.211 v 30.43 h -8.789 v 30.043 h 8.789 v 30.554 h -8.789 v 30.043 h 8.789 v 30.555 h -8.789 v 30.043 h 8.789 v 30.555 h -8.789 v 30.046 h 8.789 v 30.426"
           style="fill:none;stroke:#000000;stroke-width:2.83464599;stroke-linecap:butt;stroke-linejoin:miter;stroke-miterlimit:4;stroke-dasharray:none;stroke-opacity:1"
           id="path3848"
           inkscape:connector-curvature="0" /></g><g
         id="g3850"><path
           d="m 492.945,407.906 h -32.648 v -8.789 h -32.266 v 8.789 h -32.777 v -8.789 h -32.266 v 8.789 h -32.777 v -8.789 h -32.266 v 8.789 h -32.777 v -8.789 h -32.266 v 8.789 h -32.773 v -8.789 h -32.27 v 8.789 h -32.648"
           style="fill:none;stroke:#000000;stroke-width:2.83464599;stroke-linecap:butt;stroke-linejoin:miter;stroke-miterlimit:4;stroke-dasharray:none;stroke-opacity:1"
           id="path3852"
           inkscape:connector-curvature="0" /></g><g
         id="g3854"><path
           d="M 135.211,407.906 V 377.48 H 144 v -30.046 h -8.789 V 316.879 H 144 v -30.043 h -8.789 V 256.281 H 144 v -30.043 h -8.789 V 195.684 H 144 v -30.043 h -8.789 v -30.43"
           style="fill:none;stroke:#000000;stroke-width:2.83464599;stroke-linecap:butt;stroke-linejoin:miter;stroke-miterlimit:4;stroke-dasharray:none;stroke-opacity:1"
           id="path3856"
           inkscape:connector-curvature="0" /></g><g
         id="g3858"><path
           d="m 504.566,144 h 34.739 v -8.789 h 43.91 V 144 h 34.738"
           style="fill:none;stroke:#000000;stroke-width:2.83464599;stroke-linecap:butt;stroke-linejoin:miter;stroke-miterlimit:4;stroke-dasharray:none;stroke-opacity:1"
           id="path3860"
           inkscape:connector-curvature="0" /></g><g
         id="g3862"><path
           d="m 617.953,144 v 21.383 h 8.785 v 30.555 h -8.785 v 30.046 h 8.785 v 30.551 h -8.785 v 30.047 h 8.785 v 30.555 h -8.785 v 30.043 h 8.785 v 30.554 h -8.785 v 21.383"
           style="fill:none;stroke:#000000;stroke-width:2.83464599;stroke-linecap:butt;stroke-linejoin:miter;stroke-miterlimit:4;stroke-dasharray:none;stroke-opacity:1"
           id="path3864"
           inkscape:connector-curvature="0" /></g><g
         id="g3866"><path
           d="m 617.953,399.117 h -34.738 v 8.789 h -43.91 v -8.789 h -34.739"
           style="fill:none;stroke:#000000;stroke-width:2.83464599;stroke-linecap:butt;stroke-linejoin:miter;stroke-miterlimit:4;stroke-dasharray:none;stroke-opacity:1"
           id="path3868"
           inkscape:connector-curvature="0" /></g><g
         id="g3870"><path
           d="m 504.566,399.117 v -21.383 h -8.785 V 347.18 h 8.785 v -30.043 h -8.785 v -30.555 h 8.785 v -30.047 h -8.785 v -30.551 h 8.785 v -30.046 h -8.785 v -30.555 h 8.785 V 144"
           style="fill:none;stroke:#000000;stroke-width:2.83464599;stroke-linecap:butt;stroke-linejoin:miter;stroke-miterlimit:4;stroke-dasharray:none;stroke-opacity:1"
           id="path3872"
           inkscape:connector-curvature="0" /></g><g
         id="g3874"><path
           d="m 629.574,135.211 h 32.649 V 144 h 32.265 v -8.789 h 32.778 V 144 h 32.265 v -8.789 h 32.778 V 144 h 32.265 v -8.789 h 32.778 V 144 h 32.265 v -8.789 h 32.774 V 144 h 32.269 v -8.789 h 32.649"
           style="fill:none;stroke:#000000;stroke-width:2.83464599;stroke-linecap:butt;stroke-linejoin:miter;stroke-miterlimit:4;stroke-dasharray:none;stroke-opacity:1"
           id="path3876"
           inkscape:connector-curvature="0" /></g><g
         id="g3878"><path
           d="m 987.309,135.211 v 30.43 h -8.789 v 30.043 h 8.789 v 30.554 h -8.789 v 30.043 h 8.789 v 30.555 h -8.789 v 30.043 h 8.789 v 30.555 h -8.789 v 30.046 h 8.789 v 30.426"
           style="fill:none;stroke:#000000;stroke-width:2.83464599;stroke-linecap:butt;stroke-linejoin:miter;stroke-miterlimit:4;stroke-dasharray:none;stroke-opacity:1"
           id="path3880"
           inkscape:connector-curvature="0" /></g><g
         id="g3882"><path
           d="M 987.309,407.906 H 954.66 v -8.789 h -32.269 v 8.789 h -32.774 v -8.789 h -32.265 v 16.289 h -32.778 v -16.289 h -32.265 v 16.289 h -32.778 v -16.289 h -32.265 v 8.789 h -32.778 v -8.789 h -32.265 v 8.789 h -32.649"
           style="fill:none;stroke:#000000;stroke-width:2.83464599;stroke-linecap:butt;stroke-linejoin:miter;stroke-miterlimit:4;stroke-dasharray:none;stroke-opacity:1"
           id="path3884"
           inkscape:connector-curvature="0" /></g><g
         id="g3886"><path
           d="M 629.574,407.906 V 377.48 h 8.789 v -30.046 h -8.789 v -30.555 h 8.789 v -30.043 h -8.789 v -30.555 h 8.789 v -30.043 h -8.789 v -30.554 h 8.789 v -30.043 h -8.789 v -30.43"
           style="fill:none;stroke:#000000;stroke-width:2.83464599;stroke-linecap:butt;stroke-linejoin:miter;stroke-miterlimit:4;stroke-dasharray:none;stroke-opacity:1"
           id="path3888"
           inkscape:connector-curvature="0" /></g><g
         id="g3890"><path
           d="m 135.211,10.203 h 32.394 V 1.418 h 32.778 v 8.785 h 32.265 V 1.418 h 32.778 v 8.785 h 32.265 V 1.418 h 32.778 v 8.785 h 32.265 V 1.418 h 32.774 v 8.785 h 32.265 V 1.418 h 32.778 v 8.785 h 32.394"
           style="fill:none;stroke:#000000;stroke-width:2.83464599;stroke-linecap:butt;stroke-linejoin:miter;stroke-miterlimit:4;stroke-dasharray:none;stroke-opacity:1"
           id="path3892"
           inkscape:connector-curvature="0" /></g><g
         id="g3894"><path
           d="m 309.684,45.199 h 8.789 v 43.398 h -8.789 z"
           style="fill:none;stroke:#000000;stroke-width:2.83464599;stroke-linecap:butt;stroke-linejoin:miter;stroke-miterlimit:4;stroke-dasharray:none;stroke-opacity:1"
           id="path3896"
           inkscape:connector-curvature="0" /></g><g
         id="g3898"><path
           d="m 492.945,10.203 v 34.996 h -8.789 v 43.399 h 8.789 v 34.992"
           style="fill:none;stroke:#000000;stroke-width:2.83464599;stroke-linecap:butt;stroke-linejoin:miter;stroke-miterlimit:4;stroke-dasharray:none;stroke-opacity:1"
           id="path3900"
           inkscape:connector-curvature="0" /></g><g
         id="g3902"><path
           d="m 492.945,123.59 h -32.394 v 8.789 h -32.778 v -8.789 h -32.265 v 8.789 h -32.774 v -8.789 h -32.265 v 8.789 h -32.778 v -8.789 h -32.265 v 8.789 h -32.778 v -8.789 h -32.265 v 8.789 h -32.778 v -8.789 h -32.394"
           style="fill:none;stroke:#000000;stroke-width:2.83464599;stroke-linecap:butt;stroke-linejoin:miter;stroke-miterlimit:4;stroke-dasharray:none;stroke-opacity:1"
           id="path3904"
           inkscape:connector-curvature="0" /></g><g
         id="g3906"><path
           d="M 135.211,123.59 V 88.598 H 144 V 45.199 h -8.789 V 10.203"
           style="fill:none;stroke:#000000;stroke-width:2.83464599;stroke-linecap:butt;stroke-linejoin:miter;stroke-miterlimit:4;stroke-dasharray:none;stroke-opacity:1"
           id="path3908"
           inkscape:connector-curvature="0" /></g><g
         id="g3910"><path
           d="m 135.211,419.527 h 32.394 v -8.789 h 32.778 v 8.789 h 32.265 v -8.789 h 32.778 v 8.789 h 32.265 v -8.789 h 32.778 v 8.789 h 32.265 v -8.789 h 32.774 v 8.789 h 32.265 v -8.789 h 32.778 v 8.789 h 32.394"
           style="fill:none;stroke:#000000;stroke-width:2.83464599;stroke-linecap:butt;stroke-linejoin:miter;stroke-miterlimit:4;stroke-dasharray:none;stroke-opacity:1"
           id="path3912"
           inkscape:connector-curvature="0" /></g><g
         id="g3914"><path
           d="m 309.684,454.52 h 8.789 v 43.398 h -8.789 z"
           style="fill:none;stroke:#000000;stroke-width:2.83464599;stroke-linecap:butt;stroke-linejoin:miter;stroke-miterlimit:4;stroke-dasharray:none;stroke-opacity:1"
           id="path3916"
           inkscape:connector-curvature="0" /></g><g
         id="g3918"><path
           d="m 492.945,419.527 v 34.993 h -8.789 v 43.398 h 8.789 v 34.996"
           style="fill:none;stroke:#000000;stroke-width:2.83464599;stroke-linecap:butt;stroke-linejoin:miter;stroke-miterlimit:4;stroke-dasharray:none;stroke-opacity:1"
           id="path3920"
           inkscape:connector-curvature="0" /></g><g
         id="g3922"><path
           d="m 492.945,532.914 h -32.394 v 8.785 h -32.778 v -8.785 h -32.265 v 8.785 h -32.774 v -8.785 h -32.265 v 8.785 h -32.778 v -8.785 h -32.265 v 8.785 h -32.778 v -8.785 h -32.265 v 8.785 h -32.778 v -8.785 h -32.394"
           style="fill:none;stroke:#000000;stroke-width:2.83464599;stroke-linecap:butt;stroke-linejoin:miter;stroke-miterlimit:4;stroke-dasharray:none;stroke-opacity:1"
           id="path3924"
           inkscape:connector-curvature="0" /></g><g
         id="g3926"><path
           d="M 135.211,532.914 V 497.918 H 144 V 454.52 h -8.789 v -34.993"
           style="fill:none;stroke:#000000;stroke-width:2.83464599;stroke-linecap:butt;stroke-linejoin:miter;stroke-miterlimit:4;stroke-dasharray:none;stroke-opacity:1"
           id="path3928"
           inkscape:connector-curvature="0" /></g><g
         id="g3930"><path
           d="m 10.203,144 h 34.738 v -8.789 H 88.852 V 144 h 34.738"
           style="fill:none;stroke:#000000;stroke-width:2.83464599;stroke-linecap:butt;stroke-linejoin:miter;stroke-miterlimit:4;stroke-dasharray:none;stroke-opacity:1"
           id="path3932"
           inkscape:connector-curvature="0" /></g><g
         id="g3934"><path
           d="m 123.59,144 v 21.383 h 8.789 v 30.555 h -8.789 v 30.046 h 8.789 v 30.551 h -8.789 v 30.047 h 8.789 v 30.555 h -8.789 v 30.043 h 8.789 v 30.554 h -8.789 v 21.383"
           style="fill:none;stroke:#000000;stroke-width:2.83464599;stroke-linecap:butt;stroke-linejoin:miter;stroke-miterlimit:4;stroke-dasharray:none;stroke-opacity:1"
           id="path3936"
           inkscape:connector-curvature="0" /></g><g
         id="g3938"><path
           d="M 123.59,399.117 H 88.852 v 8.789 H 44.941 v -8.789 H 10.203"
           style="fill:none;stroke:#000000;stroke-width:2.83464599;stroke-linecap:butt;stroke-linejoin:miter;stroke-miterlimit:4;stroke-dasharray:none;stroke-opacity:1"
           id="path3940"
           inkscape:connector-curvature="0" /></g><g
         id="g3942"><path
           d="M 10.203,399.117 V 377.734 H 1.418 V 347.18 h 8.785 V 317.137 H 1.418 v -30.555 h 8.785 V 256.535 H 1.418 v -30.551 h 8.785 V 195.938 H 1.418 v -30.555 h 8.785 V 144"
           style="fill:none;stroke:#000000;stroke-width:2.83464599;stroke-linecap:butt;stroke-linejoin:miter;stroke-miterlimit:4;stroke-dasharray:none;stroke-opacity:1"
           id="path3944"
           inkscape:connector-curvature="0" /></g><g
         id="g3946"><path
           d="m 7.371,687.117 h 34.738 v -8.785 h 43.907 v 8.785 h 34.742"
           style="fill:none;stroke:#000000;stroke-width:2.83464599;stroke-linecap:butt;stroke-linejoin:miter;stroke-miterlimit:4;stroke-dasharray:none;stroke-opacity:1"
           id="path3948"
           inkscape:connector-curvature="0" /></g><g
         id="g3950"><path
           d="m 120.758,687.117 v 21.387 l -25.5,30.555 v 151.238 l 25.5,30.555 v 21.382"
           style="fill:none;stroke:#000000;stroke-width:2.83464599;stroke-linecap:butt;stroke-linejoin:miter;stroke-miterlimit:4;stroke-dasharray:none;stroke-opacity:1"
           id="path3952"
           inkscape:connector-curvature="0" /></g><g
         id="g3954"><path
           d="M 120.758,942.234 H 86.016 v 8.789 H 42.109 v -8.789 H 7.371"
           style="fill:none;stroke:#000000;stroke-width:2.83464599;stroke-linecap:butt;stroke-linejoin:miter;stroke-miterlimit:4;stroke-dasharray:none;stroke-opacity:1"
           id="path3956"
           inkscape:connector-curvature="0" /></g><g
         id="g3958"><path
           d="M 7.371,942.234 V 687.117"
           style="fill:none;stroke:#000000;stroke-width:2.83464599;stroke-linecap:butt;stroke-linejoin:miter;stroke-miterlimit:4;stroke-dasharray:none;stroke-opacity:1"
           id="path3960"
           inkscape:connector-curvature="0" /></g><g
         id="g3962"><path
           d="m 135.211,135.211 h 32.648 V 144 h 32.27 v -8.789 h 32.773 V 144 h 32.266 v -8.789 h 32.777 V 144 h 32.266 v -8.789 h 32.777 V 144 h 32.266 v -8.789 h 32.777 V 144 h 32.266 v -8.789 h 32.648"
           style="fill:none;stroke:#000000;stroke-width:2.83464599;stroke-linecap:butt;stroke-linejoin:miter;stroke-miterlimit:4;stroke-dasharray:none;stroke-opacity:1"
           id="path3964"
           inkscape:connector-curvature="0" /></g><g
         id="g3966"><path
           d="m 492.945,135.211 v 30.43 h -8.789 v 30.043 h 8.789 v 30.554 h -8.789 v 30.043 h 8.789 v 30.555 h -8.789 v 30.043 h 8.789 v 30.555 h -8.789 v 30.046 h 8.789 v 30.426"
           style="fill:none;stroke:#000000;stroke-width:2.83464599;stroke-linecap:butt;stroke-linejoin:miter;stroke-miterlimit:4;stroke-dasharray:none;stroke-opacity:1"
           id="path3968"
           inkscape:connector-curvature="0" /></g><g
         id="g3970"><path
           d="m 492.945,407.906 h -32.648 v -8.789 h -32.266 v 8.789 h -32.777 v -8.789 h -32.266 v 8.789 h -32.777 v -8.789 h -32.266 v 8.789 h -32.777 v -8.789 h -32.266 v 8.789 h -32.773 v -8.789 h -32.27 v 8.789 h -32.648"
           style="fill:none;stroke:#000000;stroke-width:2.83464599;stroke-linecap:butt;stroke-linejoin:miter;stroke-miterlimit:4;stroke-dasharray:none;stroke-opacity:1"
           id="path3972"
           inkscape:connector-curvature="0" /></g><g
         id="g3974"><path
           d="M 135.211,407.906 V 377.48 H 144 v -30.046 h -8.789 V 316.879 H 144 v -30.043 h -8.789 V 256.281 H 144 v -30.043 h -8.789 V 195.684 H 144 v -30.043 h -8.789 v -30.43"
           style="fill:none;stroke:#000000;stroke-width:2.83464599;stroke-linecap:butt;stroke-linejoin:miter;stroke-miterlimit:4;stroke-dasharray:none;stroke-opacity:1"
           id="path3976"
           inkscape:connector-curvature="0" /></g><g
         id="g3978"><path
           d="m 504.566,144 h 34.739 v -8.789 h 43.91 V 144 h 34.738"
           style="fill:none;stroke:#000000;stroke-width:2.83464599;stroke-linecap:butt;stroke-linejoin:miter;stroke-miterlimit:4;stroke-dasharray:none;stroke-opacity:1"
           id="path3980"
           inkscape:connector-curvature="0" /></g><g
         id="g3982"><path
           d="m 617.953,144 v 21.383 h 8.785 v 30.555 h -8.785 v 30.046 h 8.785 v 30.551 h -8.785 v 30.047 h 8.785 v 30.555 h -8.785 v 30.043 h 8.785 v 30.554 h -8.785 v 21.383"
           style="fill:none;stroke:#000000;stroke-width:2.83464599;stroke-linecap:butt;stroke-linejoin:miter;stroke-miterlimit:4;stroke-dasharray:none;stroke-opacity:1"
           id="path3984"
           inkscape:connector-curvature="0" /></g><g
         id="g3986"><path
           d="m 617.953,399.117 h -34.738 v 8.789 h -43.91 v -8.789 h -34.739"
           style="fill:none;stroke:#000000;stroke-width:2.83464599;stroke-linecap:butt;stroke-linejoin:miter;stroke-miterlimit:4;stroke-dasharray:none;stroke-opacity:1"
           id="path3988"
           inkscape:connector-curvature="0" /></g><g
         id="g3990"><path
           d="m 504.566,399.117 v -21.383 h -8.785 V 347.18 h 8.785 v -30.043 h -8.785 v -30.555 h 8.785 v -30.047 h -8.785 v -30.551 h 8.785 v -30.046 h -8.785 v -30.555 h 8.785 V 144"
           style="fill:none;stroke:#000000;stroke-width:2.83464599;stroke-linecap:butt;stroke-linejoin:miter;stroke-miterlimit:4;stroke-dasharray:none;stroke-opacity:1"
           id="path3992"
           inkscape:connector-curvature="0" /></g><g
         id="g3994"><path
           d="m 629.574,135.211 h 32.649 V 144 h 32.265 v -8.789 h 32.778 V 144 h 32.265 v -8.789 h 32.778 V 144 h 32.265 v -8.789 h 32.778 V 144 h 32.265 v -8.789 h 32.774 V 144 h 32.269 v -8.789 h 32.649"
           style="fill:none;stroke:#000000;stroke-width:2.83464599;stroke-linecap:butt;stroke-linejoin:miter;stroke-miterlimit:4;stroke-dasharray:none;stroke-opacity:1"
           id="path3996"
           inkscape:connector-curvature="0" /></g><g
         id="g3998"><path
           d="m 987.309,135.211 v 30.43 h -8.789 v 30.043 h 8.789 v 30.554 h -8.789 v 30.043 h 8.789 v 30.555 h -8.789 v 30.043 h 8.789 v 30.555 h -8.789 v 30.046 h 8.789 v 30.426"
           style="fill:none;stroke:#000000;stroke-width:2.83464599;stroke-linecap:butt;stroke-linejoin:miter;stroke-miterlimit:4;stroke-dasharray:none;stroke-opacity:1"
           id="path4000"
           inkscape:connector-curvature="0" /></g><g
         id="g4002"><path
           d="M 987.309,407.906 H 954.66 v -8.789 h -32.269 v 8.789 h -32.774 v -8.789 h -32.265 v 16.289 h -32.778 v -16.289 h -32.265 v 16.289 h -32.778 v -16.289 h -32.265 v 8.789 h -32.778 v -8.789 h -32.265 v 8.789 h -32.649"
           style="fill:none;stroke:#000000;stroke-width:2.83464599;stroke-linecap:butt;stroke-linejoin:miter;stroke-miterlimit:4;stroke-dasharray:none;stroke-opacity:1"
           id="path4004"
           inkscape:connector-curvature="0" /></g><g
         id="g4006"><path
           d="M 629.574,407.906 V 377.48 h 8.789 v -30.046 h -8.789 v -30.555 h 8.789 v -30.043 h -8.789 v -30.555 h 8.789 v -30.043 h -8.789 v -30.554 h 8.789 v -30.043 h -8.789 v -30.43"
           style="fill:none;stroke:#000000;stroke-width:2.83464599;stroke-linecap:butt;stroke-linejoin:miter;stroke-miterlimit:4;stroke-dasharray:none;stroke-opacity:1"
           id="path4008"
           inkscape:connector-curvature="0" /></g><g
         id="g4010"><path
           d="m 135.211,10.203 h 32.394 V 1.418 h 32.778 v 8.785 h 32.265 V 1.418 h 32.778 v 8.785 h 32.265 V 1.418 h 32.778 v 8.785 h 32.265 V 1.418 h 32.774 v 8.785 h 32.265 V 1.418 h 32.778 v 8.785 h 32.394"
           style="fill:none;stroke:#000000;stroke-width:2.83464599;stroke-linecap:butt;stroke-linejoin:miter;stroke-miterlimit:4;stroke-dasharray:none;stroke-opacity:1"
           id="path4012"
           inkscape:connector-curvature="0" /></g><g
         id="g4014"><path
           d="m 309.684,45.199 h 8.789 v 43.398 h -8.789 z"
           style="fill:none;stroke:#000000;stroke-width:2.83464599;stroke-linecap:butt;stroke-linejoin:miter;stroke-miterlimit:4;stroke-dasharray:none;stroke-opacity:1"
           id="path4016"
           inkscape:connector-curvature="0" /></g><g
         id="g4018"><path
           d="m 492.945,10.203 v 34.996 h -8.789 v 43.399 h 8.789 v 34.992"
           style="fill:none;stroke:#000000;stroke-width:2.83464599;stroke-linecap:butt;stroke-linejoin:miter;stroke-miterlimit:4;stroke-dasharray:none;stroke-opacity:1"
           id="path4020"
           inkscape:connector-curvature="0" /></g><g
         id="g4022"><path
           d="m 492.945,123.59 h -32.394 v 8.789 h -32.778 v -8.789 h -32.265 v 8.789 h -32.774 v -8.789 h -32.265 v 8.789 h -32.778 v -8.789 h -32.265 v 8.789 h -32.778 v -8.789 h -32.265 v 8.789 h -32.778 v -8.789 h -32.394"
           style="fill:none;stroke:#000000;stroke-width:2.83464599;stroke-linecap:butt;stroke-linejoin:miter;stroke-miterlimit:4;stroke-dasharray:none;stroke-opacity:1"
           id="path4024"
           inkscape:connector-curvature="0" /></g><g
         id="g4026"><path
           d="M 135.211,123.59 V 88.598 H 144 V 45.199 h -8.789 V 10.203"
           style="fill:none;stroke:#000000;stroke-width:2.83464599;stroke-linecap:butt;stroke-linejoin:miter;stroke-miterlimit:4;stroke-dasharray:none;stroke-opacity:1"
           id="path4028"
           inkscape:connector-curvature="0" /></g><path
         d="m 787.734,190.574 c -0.453,-0.004 -0.902,-0.004 -1.351,0.008 -3.27,0.082 -6.399,0.652 -9.278,1.727 -11.062,4.136 -21.214,15.406 -27.117,30.093 -1.457,3.625 -2.066,4.293 -5.027,5.516 -1.859,0.766 -4.57,2.785 -6.051,4.5 -3.363,3.895 -9.695,16.773 -14.16,28.793 -3.992,10.746 -4.738,16.613 -3.453,27.105 0.879,7.141 2.211,10.434 6.68,16.508 1.722,2.344 1.773,2.617 0.609,3.469 -0.691,0.508 -2.523,1.125 -4.066,1.371 -3.989,0.637 -9.524,4.391 -12.313,8.352 -1.312,1.863 -2.664,3.386 -2.996,3.386 -0.332,0 -0.606,0.508 -0.606,1.133 0,1.766 2.208,0.024 5.184,-4.097 4.34,-6.008 13.449,-9.852 16.531,-6.981 2.332,2.172 16.344,8.969 22.864,11.09 6.781,2.207 15.011,3.715 24.796,4.539 3.715,0.316 7.09,0.633 7.5,0.703 0.415,0.074 4.969,0.188 10.125,0.254 7.622,0.094 9.797,0.371 11.625,1.488 l 2.25,1.371 -0.445,7.063 c -0.25,3.883 -0.707,7.652 -1.019,8.375 -0.438,1.012 -0.211,1.312 0.996,1.312 1.871,0 2.16,-1.086 2.558,-9.562 0.157,-3.406 0.461,-6.363 0.676,-6.578 0.211,-0.211 1.367,0.125 2.563,0.746 3.089,1.613 6.48,1.523 6.156,-0.16 -0.137,-0.719 -0.922,-1.41 -1.742,-1.539 -0.821,-0.129 -2.168,-0.528 -2.993,-0.887 -0.824,-0.359 -2.46,-0.863 -3.64,-1.121 -3.117,-0.68 -5.735,-2.61 -5.735,-4.235 0,-0.777 -0.335,-1.414 -0.75,-1.414 -0.41,0 -0.75,-0.617 -0.75,-1.375 0,-0.757 -0.23,-1.609 -0.515,-1.89 -0.281,-0.285 -0.563,-1.098 -0.621,-1.813 -0.059,-0.715 -0.352,-2.597 -0.656,-4.183 -0.543,-2.84 -0.528,-2.864 0.91,-1.5 0.8,0.761 1.703,2.57 2.004,4.011 0.66,3.2 3.179,7.508 4.378,7.489 0.481,-0.004 1.372,-0.325 1.981,-0.707 0.922,-0.586 0.949,-1.118 0.187,-3.231 -1.734,-4.797 -0.414,-10.926 2.258,-10.469 0.664,0.114 1.461,-0.195 1.766,-0.691 0.379,-0.609 0.16,-0.746 -0.692,-0.418 -2.136,0.82 -1.429,-1.508 1.313,-4.332 1.41,-1.453 2.766,-2.641 3.016,-2.641 0.683,0 -0.411,3.922 -1.563,5.606 -1.84,2.683 -0.91,10.144 1.262,10.144 0.398,0 0.722,-1.836 0.722,-4.082 0,-2.242 0.34,-4.289 0.75,-4.543 0.415,-0.254 0.75,-1.285 0.75,-2.289 0,-2.453 4.508,-6.883 5.395,-5.3 0.684,1.218 -0.34,4.531 -1.648,5.343 -0.508,0.313 -0.786,2.356 -0.692,5.133 0.129,3.777 0.5,4.988 2.067,6.676 2.812,3.035 4.808,2.723 5.945,-0.926 0.516,-1.644 0.953,-4.09 0.973,-5.437 0.058,-3.762 3.144,-12.2 4.46,-12.2 1.989,0 1.782,9.172 -0.496,22.012 -0.382,2.168 -0.254,2.473 0.965,2.242 0.774,-0.148 1.512,-0.996 1.637,-1.879 0.199,-1.382 3.019,-2.98 4.707,-2.664 0.242,0.043 0.469,-0.324 0.504,-0.816 0.078,-1.063 0.465,-2.738 1.683,-7.258 l 0.903,-3.355 0.953,2.609 c 0.523,1.434 1.477,3.805 2.117,5.266 1.133,2.574 1.102,2.765 -0.957,6.074 -2.019,3.246 -5.207,5.758 -10.105,7.957 -1.219,0.547 -3.266,1.793 -4.547,2.769 -1.278,0.977 -3.149,1.891 -4.156,2.036 -2.426,0.339 -2.348,1.699 0.113,1.984 1.902,0.223 1.933,0.305 1.336,4.125 -0.332,2.144 -0.793,4.66 -1.02,5.586 -0.32,1.312 -0.09,1.687 1.035,1.687 1.114,0 1.547,-0.687 1.887,-3 0.242,-1.648 0.637,-4.32 0.875,-5.937 0.344,-2.348 1.027,-3.352 3.43,-5.016 1.683,-1.168 3.222,-1.769 3.508,-1.375 0.277,0.387 2.531,2.383 5.003,4.434 2.477,2.051 6.067,5.34 7.977,7.312 3.988,4.11 7.063,5.098 4.727,1.52 -1.563,-2.399 -8.649,-9.375 -12.598,-12.406 -1.5,-1.153 -2.727,-2.332 -2.719,-2.625 0.008,-0.293 1.133,-1.258 2.508,-2.149 1.375,-0.89 3.582,-3.254 4.91,-5.25 2.57,-3.875 2.68,-6.199 0.492,-10.418 -0.968,-1.867 -0.875,-2.109 1.715,-4.422 1.977,-1.765 3.762,-2.582 6.399,-2.929 6.875,-0.914 11.074,-5.219 9.191,-9.418 -0.68,-1.512 -0.574,-1.942 0.652,-2.625 3.012,-1.688 6.371,-5.571 6.371,-7.364 0,-1 -0.843,-2.613 -1.875,-3.582 -1.031,-0.968 -1.871,-2.461 -1.871,-3.32 0.012,-3.676 -2.769,-9.152 -6.879,-13.559 l -4.253,-4.558 3.503,-2.027 c 4.575,-2.645 5.59,-3.489 7.235,-6.016 0.754,-1.16 2.668,-2.77 4.258,-3.578 1.843,-0.942 2.882,-1.996 2.882,-2.922 0,-0.801 0.844,-2.297 1.875,-3.328 1.032,-1.031 1.864,-2.309 1.852,-2.844 -0.016,-0.535 -0.453,-0.211 -0.969,0.723 -1.23,2.211 -3.246,3.578 -6.664,4.523 l -2.777,0.77 -1.129,-3.891 c -0.68,-2.332 -2.063,-4.781 -3.457,-6.117 -2.152,-2.063 -2.746,-2.231 -7.848,-2.231 -4.406,0 -5.941,0.313 -7.593,1.547 -3.364,2.512 -4.79,4.981 -5.282,9.153 -0.539,4.546 -0.531,4.543 -10.332,3.086 -6.218,-0.926 -7.746,-1.942 -6.476,-4.313 0.441,-0.824 0.8,-1.945 0.8,-2.484 0,-0.543 -0.589,0.175 -1.312,1.597 -0.797,1.575 -2.273,2.977 -3.762,3.575 -2.367,0.949 -2.48,0.91 -3.191,-1.09 -1.465,-4.121 -2.856,-5.852 -6.078,-7.559 -2.696,-1.43 -3.992,-1.66 -7.274,-1.301 -8.066,0.891 -11.453,3.778 -12.484,10.653 -0.449,2.992 -0.668,3.281 -2.137,2.824 -5.051,-1.559 -9.637,-3.582 -12.922,-5.711 l -3.715,-2.402 5.625,-0.903 c 3.094,-0.496 9.083,-1.785 13.305,-2.859 12.313,-3.141 18.86,-4.188 26.18,-4.188 7.281,0 7.754,0.243 7.777,4 0.008,1 0.227,1.289 0.571,0.746 0.859,-1.347 14.57,-4.566 23.847,-5.593 9.641,-1.071 19.164,-0.129 23.285,2.3 2.45,1.446 2.469,1.446 2.946,-0.062 0.308,-0.973 -0.032,-2.102 -0.946,-3.141 -0.785,-0.894 -1.828,-2.57 -2.32,-3.722 -0.492,-1.153 -1.887,-2.668 -3.102,-3.364 -1.214,-0.699 -2.363,-1.851 -2.546,-2.558 -0.418,-1.602 -6.469,-5.508 -11.079,-7.153 -3.339,-1.187 -3.519,-1.406 -5.082,-6.257 -5.339,-16.578 -20.05,-20.618 -40.382,-11.075 l -4.676,2.196 -4.973,-3 c -6.797,-4.102 -14.117,-6.281 -20.926,-6.391 z m -0.058,1.172 c 6.933,-0.113 13.137,1.711 20.16,5.883 4.137,2.457 4.953,3.359 7.457,8.242 1.547,3.016 2.812,6.106 2.812,6.863 0,1.227 -0.414,1.133 -3.753,-0.836 -7.993,-4.71 -18.786,-6.843 -26.7,-5.269 -6.629,1.316 -18.027,7.289 -16.617,8.703 0.293,0.293 0.965,0.191 1.492,-0.223 3.946,-3.125 12.481,-6.472 18.594,-7.293 8.074,-1.082 21.504,3.539 28.391,9.774 l 3.468,3.144 -4.5,-0.738 c -6.164,-1.008 -16.964,-0.23 -23.097,1.664 -2.801,0.867 -7.188,2.899 -9.746,4.52 -2.559,1.621 -6.426,3.343 -8.594,3.828 -2.164,0.484 -3.938,1.168 -3.938,1.512 0,1.855 8.325,-0.547 13.125,-3.786 7.434,-5.019 19.559,-7.394 31.094,-6.086 6.918,0.786 8.992,1.434 11.453,3.575 2.207,1.925 0.789,2.297 -3.433,0.902 -13.332,-4.398 -22.774,-3.676 -35.281,2.695 -4.493,2.289 -8.645,3.977 -9.227,3.754 -0.582,-0.222 -0.871,-0.105 -0.648,0.258 0.632,1.023 -1.54,1.57 -6.243,1.57 -4.386,0 -6.09,0.848 -6.09,3.036 0,2.343 2.825,4.027 6.387,3.808 2.637,-0.16 3.961,0.242 6.524,2 4.687,3.215 10.164,5.848 15.23,7.317 6.504,1.894 19.656,1.156 27.359,-1.532 8.575,-2.988 8.25,-2.926 8.25,-1.629 0,1.614 -4.316,4.703 -7.5,5.368 -1.441,0.3 -7.718,0.699 -13.941,0.89 -13.551,0.41 -19.152,-0.722 -28.996,-5.875 -0.949,-0.496 -1.313,-0.398 -1.313,0.363 0,1.293 7.188,4.59 13.176,6.047 7.793,1.895 21.297,2.211 28.696,0.676 5.433,-1.129 6.906,-1.769 9.265,-4.012 l 2.805,-2.668 6.594,1.02 c 8.55,1.324 20.793,0.816 31.214,-1.289 4.469,-0.906 8.321,-1.453 8.555,-1.215 0.235,0.234 -1.058,1.086 -2.875,1.895 -2.097,0.929 -3.644,2.234 -4.234,3.57 -1.156,2.617 -8.285,7.183 -13.309,8.523 -5.676,1.52 -17.418,1.387 -20.562,-0.23 -1.403,-0.723 -3.008,-1.313 -3.563,-1.313 -1.637,0 -1.156,1.356 0.676,1.907 0.93,0.277 3.824,1.511 6.434,2.742 2.613,1.23 4.964,2.015 5.23,1.754 0.266,-0.266 0.047,-0.754 -0.488,-1.082 -0.563,-0.348 1.488,-0.801 4.898,-1.078 3.227,-0.262 6.727,-0.676 7.785,-0.918 1.563,-0.364 2.629,0.222 5.793,3.179 4.164,3.891 6.84,8.949 7.118,13.442 l 0.167,2.777 -6,2.199 c -17.089,6.274 -32.41,5.781 -75.289,-2.402 -5.711,-1.09 -14.699,-0.953 -17.546,0.262 -4.293,1.839 -8.04,6.996 -8.04,11.074 0,0.832 0.942,2.449 2.09,3.597 2.016,2.016 2.414,2.102 11.813,2.485 8.16,0.332 19.566,2.031 31.683,4.723 l 1.707,0.378 -1.894,3.235 c -1.285,2.187 -1.918,4.422 -1.965,6.918 l -0.066,3.683 -0.981,-3.566 c -0.91,-3.301 -3.48,-6.488 -5.262,-6.523 -2.39,-0.043 -2.796,1.285 -2.257,7.375 l 0.539,6.089 -2.891,-0.089 c -5.476,-0.168 -23.91,-2.028 -32.516,-3.282 -17.015,-2.476 -32,-7.605 -36.496,-12.492 -2.816,-3.055 -6.086,-9.848 -6.914,-14.359 -1.289,-7.012 -0.668,-19.664 1.2,-24.528 0.875,-2.269 2.597,-6.906 3.835,-10.308 3.075,-8.457 9.176,-20.5 10.102,-19.926 0.418,0.258 0.535,0.105 0.262,-0.336 -0.739,-1.195 3.027,-5.281 6.351,-6.887 1.602,-0.773 2.907,-1.351 2.899,-1.289 -0.012,0.067 -0.469,2.907 -1.024,6.309 -0.769,4.734 -0.797,6.187 -0.109,6.187 0.551,0 1.367,-2.879 2.129,-7.507 2.719,-16.567 12.961,-31.672 25.769,-38.004 4.77,-2.356 6.52,-2.813 11.918,-3.094 0.469,-0.024 0.934,-0.043 1.399,-0.047 z m 49.457,2.203 c 5.73,-0.035 10.691,1.563 14.187,4.793 2.821,2.613 7.285,10.813 7.285,13.383 0,1.465 0.145,1.469 -10.792,-0.379 -3.961,-0.672 -7.473,-0.664 -15,0.024 -5.407,0.496 -10.516,1.085 -11.352,1.312 -1.285,0.344 -1.66,-0.125 -2.438,-3.031 -0.507,-1.887 -1.734,-4.723 -2.726,-6.293 l -1.805,-2.86 3.871,-1.949 c 6.551,-3.297 13.043,-4.965 18.77,-5 z m 0.519,19.496 c 10.715,-0.047 22.614,1.254 27.555,3.418 7.258,3.176 11.344,7.063 5.586,5.313 -1.578,-0.481 -7.902,-0.856 -14.438,-0.856 -10.582,-0.007 -12.128,0.168 -17.25,1.942 -3.093,1.074 -6.214,2.199 -6.937,2.5 -0.883,0.371 -1.313,0.211 -1.313,-0.492 0,-0.575 -0.933,-1.598 -2.074,-2.27 -1.14,-0.676 -3.734,-2.684 -5.758,-4.469 l -3.679,-3.238 5.195,-0.898 c 3.617,-0.629 8.242,-0.93 13.113,-0.95 z m 17.375,9.067 c 8.754,0.019 19.192,1.644 22.676,3.929 3.043,1.993 2.199,2.786 -1.351,1.262 -3.739,-1.601 -9.215,-2.75 -16.344,-3.43 -7.719,-0.734 -28.227,3.231 -29.02,5.614 -0.242,0.726 0.149,0.855 1.453,0.48 14.704,-4.222 25.762,-5.191 35.875,-3.14 3.469,0.703 7.344,1.804 8.61,2.453 2.976,1.515 6.594,4.062 6.254,4.398 -0.145,0.145 -2.387,-0.398 -4.985,-1.207 -8.461,-2.633 -24.433,-1.738 -38.465,2.156 l -4.996,1.387 -0.898,-1.68 c -0.5,-0.929 -1.91,-1.879 -3.156,-2.129 -3.438,-0.687 -11.414,-0.542 -15,0.274 -1.758,0.402 -8.934,2.062 -15.95,3.691 -14.937,3.473 -18.57,3.875 -25.062,2.774 -6.391,-1.082 -6.668,-2.356 -0.652,-2.992 4.968,-0.528 11.199,-2.653 15.589,-5.321 7.352,-4.457 10.36,-5.238 20.25,-5.246 9.188,-0.008 15.629,1.231 18.586,3.578 0.684,0.539 1.227,0.403 1.875,-0.484 1.129,-1.543 10.102,-4.637 16.836,-5.813 2.227,-0.386 4.957,-0.558 7.875,-0.554 z m 3.203,14.89 c 1.375,0 1.875,0.399 1.875,1.5 0,1.465 -2.128,2.118 -3.25,1 -1.136,-1.14 -0.386,-2.5 1.375,-2.5 z m -50.257,1.618 c 0.988,0.043 1.949,0.867 1.742,1.933 -0.137,0.719 -0.836,1.422 -1.555,1.559 -1.551,0.297 -2.594,-1.867 -1.453,-3.012 0.356,-0.355 0.813,-0.5 1.266,-0.48 z m 57.082,2.222 c 1.453,-0.054 2.664,1.297 1.742,3.024 -0.899,1.675 -2.426,1.785 -3.692,0.261 -0.742,-0.898 -0.742,-1.351 0,-2.25 0.583,-0.699 1.29,-1.011 1.95,-1.035 z m -49.129,1.422 c 0.769,0.039 1.57,0.375 2.179,1.113 0.747,0.899 0.747,1.352 0,2.25 -1.281,1.547 -3.542,1.411 -4.437,-0.261 -0.961,-1.793 0.57,-3.18 2.258,-3.102 z m 41.203,1.668 c 0.891,0.027 1.723,1.066 1.144,2.004 -0.277,0.449 -0.804,0.816 -1.168,0.816 -1.156,0 -1.699,-1.597 -0.832,-2.464 0.258,-0.258 0.559,-0.364 0.856,-0.356 z m -48.75,2.25 c 0.891,0.027 1.723,1.066 1.144,2.004 -0.277,0.449 -0.804,0.816 -1.168,0.816 -1.156,0 -1.699,-1.597 -0.832,-2.464 0.258,-0.258 0.559,-0.364 0.856,-0.356 z m 13.836,9.641 c -0.649,-0.059 -2.238,0.664 -5.797,2.488 -2.75,1.406 -7.711,3.516 -11.027,4.687 -3.317,1.172 -6.032,2.383 -6.032,2.692 -0.007,1.176 3.094,0.473 9.125,-2.07 3.434,-1.45 6.684,-2.465 7.223,-2.258 0.535,0.203 0.773,0.043 0.523,-0.36 -0.246,-0.402 1.086,-1.476 2.965,-2.39 1.875,-0.91 3.41,-1.93 3.41,-2.258 0,-0.316 -0.097,-0.504 -0.39,-0.531 z m 84.43,10.429 c -2.895,0 -5.29,1.18 -5.29,2.602 0,0.586 -0.906,1.152 -2.062,1.285 -1.75,0.203 -2.102,0.633 -2.316,2.863 -0.301,3.071 1.043,9.688 2.562,12.594 1.414,2.715 1.348,6.52 -0.144,8.012 -1.762,1.762 -2.672,1.137 -4.95,-3.414 -1.117,-2.239 -2.992,-5.418 -4.16,-7.067 -1.777,-2.507 -2.551,-3 -4.715,-3 -3.64,0 -3.738,2.176 -0.398,9.024 1.476,3.031 2.769,6.242 2.875,7.137 0.215,1.878 -2.535,4.234 -5.535,4.746 -4.313,0.734 -8.282,3.691 -11.121,8.285 -1.524,2.465 -1.637,3.394 -1.317,10.754 0.332,7.597 0.66,9.48 3.235,18.453 0.578,2.008 1.046,4.789 1.046,6.187 0,1.395 0.34,2.539 0.75,2.539 1.118,0 0.907,-6.41 -0.402,-12.375 -0.637,-2.886 -1.324,-6.062 -1.535,-7.054 -0.211,-0.993 -0.703,-2.403 -1.098,-3.137 -1.48,-2.766 -0.824,-9.652 1.289,-13.531 2.082,-3.828 7.5,-8.153 10.211,-8.153 1.821,0 7.094,-2.91 7.582,-4.187 0.473,-1.231 -0.754,-4.594 -4.152,-11.414 -2.121,-4.262 -2.457,-5.426 -1.5,-5.242 1.266,0.246 7.598,9.281 7.605,10.851 0.008,1.781 2.403,3.242 5.325,3.242 2.492,0 3.082,-0.308 3.695,-1.925 0.906,-2.379 0.961,-8.344 0.086,-8.887 -0.359,-0.219 -1.063,-2.012 -1.57,-3.981 -0.508,-1.968 -1.266,-4.3 -1.68,-5.175 -0.781,-1.645 0.262,-4.782 1.594,-4.782 0.906,0 4.511,7.09 5.781,11.364 0.582,1.964 1.41,3.789 1.836,4.05 0.43,0.266 1.086,1.293 1.461,2.282 0.379,0.992 1.199,1.804 1.828,1.804 1.676,0 1.465,-4.347 -0.356,-7.332 -0.824,-1.351 -1.5,-3.058 -1.5,-3.793 0,-0.738 -0.597,-1.996 -1.335,-2.797 -2.766,-3.011 -4.879,-7.16 -4.063,-7.98 1.426,-1.426 4.453,0.082 7.449,3.711 2.805,3.398 4.91,9.199 5.895,16.254 0.676,4.832 2.195,3.207 2.871,-3.063 0.316,-2.964 0.211,-4.8 -0.297,-5.113 -0.437,-0.269 -0.625,-0.758 -0.422,-1.09 0.203,-0.328 -0.297,-1.199 -1.113,-1.937 -1.922,-1.739 -2.02,-5.61 -0.145,-5.61 0.739,0 1.887,0.93 2.559,2.063 0.672,1.133 1.926,2.875 2.789,3.863 1.66,1.914 2.039,5.555 0.879,8.477 -0.375,0.949 -1.442,3.746 -2.371,6.222 -2.285,6.094 -5.707,10.145 -10.567,12.528 -2.218,1.086 -4.703,2.718 -5.519,3.629 -2.301,2.562 -9.809,7.32 -13.121,8.312 -3.887,1.164 -4.176,3.293 -0.367,2.676 l 2.617,-0.426 -0.078,6.516 c -0.075,6.043 0.461,9.082 3.238,18.328 0.574,1.926 1.277,2.812 2.223,2.812 1.613,0 1.675,-0.297 0.519,-2.453 -1.601,-2.992 -3.723,-12.89 -4.164,-19.426 l -0.437,-6.503 4.043,-2.59 c 2.226,-1.422 5.535,-3.828 7.351,-5.348 1.816,-1.516 4.348,-3.215 5.621,-3.777 5.586,-2.45 10.547,-9.739 13.047,-19.153 1.496,-5.648 1.387,-8.015 -0.492,-10.367 -0.879,-1.105 -2.285,-3.273 -3.121,-4.82 -1.364,-2.531 -1.821,-2.813 -4.528,-2.813 -1.82,0 -3.16,0.399 -3.39,1.004 -0.266,0.692 -1.278,0.114 -3.266,-1.875 -2.133,-2.133 -3.496,-2.879 -5.262,-2.879 z m -124.52,15.868 c 4.184,-0.04 9.141,0.644 20.605,2.746 21.633,3.964 27.235,4.636 38.606,4.636 10.684,0 15.559,-0.703 24.769,-3.574 3.508,-1.094 6.629,-1.918 6.938,-1.832 0.312,0.086 0.562,-0.18 0.562,-0.594 0,-1.457 2.903,-0.742 3.407,0.84 0.664,2.094 -1.547,5.051 -5.383,7.196 -3.875,2.167 -15.824,3.382 -32.899,3.351 -15.382,-0.031 -31.042,-1.789 -45,-5.059 -5.218,-1.222 -16.125,-1.445 -16.125,-0.328 0,0.426 2.188,0.75 5.063,0.75 2.785,0 7.426,0.508 10.312,1.129 10.188,2.188 23.36,4.16 32.555,4.879 5.117,0.399 9.406,0.824 9.528,0.945 0.121,0.122 -0.145,1.645 -0.586,3.383 -0.586,2.309 -1.184,3.164 -2.211,3.164 -1.086,0 -1.414,-0.554 -1.422,-2.437 -0.016,-3.684 -0.895,-4.594 -3.84,-3.988 -1.387,0.281 -3.824,0.484 -5.414,0.445 -2.242,-0.051 -3.32,0.394 -4.805,1.996 -2.277,2.461 -2.273,2.461 -17.805,-0.566 -8.308,-1.622 -13.441,-2.196 -19.632,-2.196 -8.047,-0.004 -8.442,-0.078 -9.86,-1.879 -2.023,-2.574 -1.078,-6.531 2.387,-9.996 2.465,-2.461 2.98,-2.64 8.488,-2.953 0.586,-0.035 1.164,-0.055 1.762,-0.058 z m 86.449,12.707 c 1.102,0.043 1.344,0.441 1.656,1.421 0.75,2.368 -0.855,4.954 -4.042,6.497 -2.012,0.972 -4.829,1.335 -10.958,1.421 -12.32,0.172 -12.375,0.157 -12.375,-3.839 0,-1.829 0.086,-3.336 0.188,-3.348 0.105,-0.012 4.238,-0.328 9.187,-0.699 4.95,-0.371 10.907,-0.91 13.235,-1.196 1.48,-0.183 2.449,-0.285 3.109,-0.257 z m -107.629,1.461 c -0.351,-0.051 -0.59,0.32 -0.59,1.16 0,2.601 2.715,5.8 6.375,7.523 4.11,1.934 6.672,2.293 6.196,0.867 -0.168,-0.504 -1.617,-1.191 -3.227,-1.523 -3.34,-0.695 -5.82,-2.746 -7.125,-5.887 -0.547,-1.328 -1.179,-2.078 -1.629,-2.14 z m 70.379,8.964 c 0.75,0 1.028,1.082 1.008,3.938 -0.016,2.164 -0.5,4.781 -1.078,5.812 l -1.047,1.875 -1.23,-2.918 c -1.676,-3.98 -0.403,-8.707 2.347,-8.707 z m 13.489,0.75 c 1.363,0 1.832,0.317 1.55,1.047 -0.218,0.574 -0.812,2.43 -1.32,4.125 -1.129,3.77 -3.387,4.395 -2.656,0.735 0.258,-1.289 0.468,-3.145 0.468,-4.125 0,-1.418 0.399,-1.782 1.958,-1.782 z m 8.117,0.047 c 0.148,-0.008 0.316,-0.008 0.5,0.004 0.211,0.012 0.445,0.035 0.699,0.074 l 1.652,0.25 -1.57,1.414 c -1.445,1.297 -1.613,1.313 -2.059,0.157 -0.476,-1.246 -0.265,-1.832 0.778,-1.899 z m -122.719,2.25 c 0.398,0.035 1.391,0.489 2.871,1.391 3.801,2.32 15.922,6.57 22.398,7.859 10.485,2.082 24.942,3.801 39.356,4.676 4.551,0.277 8.269,0.762 8.269,1.078 0,0.317 0.208,1.11 0.458,1.762 0.394,1.031 -0.379,1.172 -5.813,1.082 -17.758,-0.305 -34.586,-2.438 -44.145,-5.598 -6.484,-2.144 -18.023,-7.672 -21.742,-10.418 -1.683,-1.242 -2.16,-1.879 -1.652,-1.832 z m 113.121,6.957 c 0.168,0.032 0.273,0.176 0.273,0.407 0,0.414 -0.335,0.96 -0.75,1.214 -0.41,0.254 -0.75,0.125 -0.75,-0.285 0,-0.414 0.34,-0.961 0.75,-1.215 0.106,-0.062 0.204,-0.105 0.293,-0.121 0.067,-0.015 0.129,-0.015 0.184,0 z m -17.305,16.246 c -1.882,0 -3,0.918 -2.152,1.77 0.969,0.965 3.98,0.476 3.98,-0.645 0,-0.691 -0.703,-1.125 -1.828,-1.125 z"
         style="fill:#000000;fill-opacity:1;fill-rule:nonzero;stroke:none"
         id="path4030"
         inkscape:connector-curvature="0" /></g></g></svg>